<svg width="32" height="48" viewBox="0 0 32 48" fill="none" xmlns="http://www.w3.org/2000/svg">
<path fill-rule="evenodd" clip-rule="evenodd" d="M17.324 0H14.67C6.41704 0.618 -0.00195312 7.06802 -0.00195312 14.817V33.071C4.68751e-05 41.3 7.17606 48 16.0001 48C24.8241 48 32.0001 41.3 32.0001 33.069V14.811C32.0001 7.06797 25.58 0.617 17.324 0ZM29.0001 32.868C29.0001 39.553 23.1671 44.987 16.0001 44.987C8.83306 44.987 3.00006 39.553 3.00006 32.868V15.1C3.00006 8.41698 8.83206 2.98199 16.0001 2.98199C23.1681 2.98199 29.0001 8.41698 29.0001 15.1V32.865V32.868ZM16.0001 13C15.7395 12.9975 15.481 13.0464 15.2394 13.144C14.9977 13.2415 14.7777 13.3858 14.5919 13.5685C14.4061 13.7513 14.2582 13.9688 14.1567 14.2088C14.0551 14.4488 14.0019 14.7064 14.0001 14.967V20.033C14.0322 20.5406 14.2565 21.0168 14.6273 21.3648C14.998 21.7129 15.4875 21.9066 15.996 21.9066C16.5046 21.9066 16.9941 21.7129 17.3649 21.3648C17.7357 21.0168 17.9599 20.5406 17.9921 20.033V14.967C17.9881 14.4422 17.7761 13.9404 17.4027 13.5717C17.0293 13.2029 16.5249 12.9973 16.0001 13Z" fill="white"/>
</svg>
