<svg width="64" height="64" viewBox="0 0 64 64" fill="none" xmlns="http://www.w3.org/2000/svg">
<path d="M58.6666 45.3333H5.33329C4.62605 45.3333 3.94777 45.6143 3.44767 46.1144C2.94758 46.6145 2.66663 47.2928 2.66663 48C2.66663 48.7072 2.94758 49.3855 3.44767 49.8856C3.94777 50.3857 4.62605 50.6667 5.33329 50.6667H58.6666C59.3739 50.6667 60.0521 50.3857 60.5522 49.8856C61.0523 49.3855 61.3333 48.7072 61.3333 48C61.3333 47.2928 61.0523 46.6145 60.5522 46.1144C60.0521 45.6143 59.3739 45.3333 58.6666 45.3333ZM58.6666 56H5.33329C4.62605 56 3.94777 56.2809 3.44767 56.781C2.94758 57.2811 2.66663 57.9594 2.66663 58.6667C2.66663 59.3739 2.94758 60.0522 3.44767 60.5523C3.94777 61.0524 4.62605 61.3333 5.33329 61.3333H58.6666C59.3739 61.3333 60.0521 61.0524 60.5522 60.5523C61.0523 60.0522 61.3333 59.3739 61.3333 58.6667C61.3333 57.9594 61.0523 57.2811 60.5522 56.781C60.0521 56.2809 59.3739 56 58.6666 56ZM16 18.6667C15.4725 18.6667 14.957 18.8231 14.5184 19.1161C14.0799 19.4091 13.7381 19.8256 13.5363 20.3128C13.3344 20.8001 13.2816 21.3363 13.3845 21.8536C13.4874 22.3709 13.7414 22.846 14.1143 23.2189C14.4873 23.5919 14.9624 23.8459 15.4797 23.9488C15.997 24.0517 16.5332 23.9988 17.0204 23.797C17.5077 23.5952 17.9242 23.2534 18.2172 22.8149C18.5102 22.3763 18.6666 21.8607 18.6666 21.3333C18.6666 20.6261 18.3857 19.9478 17.8856 19.4477C17.3855 18.9476 16.7072 18.6667 16 18.6667ZM53.3333 2.66666H10.6666C8.54489 2.66666 6.51006 3.50952 5.00977 5.00981C3.50948 6.5101 2.66663 8.54493 2.66663 10.6667V32C2.66663 34.1217 3.50948 36.1566 5.00977 37.6568C6.51006 39.1571 8.54489 40 10.6666 40H53.3333C55.455 40 57.4899 39.1571 58.9901 37.6568C60.4904 36.1566 61.3333 34.1217 61.3333 32V10.6667C61.3333 8.54493 60.4904 6.5101 58.9901 5.00981C57.4899 3.50952 55.455 2.66666 53.3333 2.66666ZM56 32C56 32.7072 55.719 33.3855 55.2189 33.8856C54.7188 34.3857 54.0405 34.6667 53.3333 34.6667H10.6666C9.95938 34.6667 9.2811 34.3857 8.78101 33.8856C8.28091 33.3855 7.99996 32.7072 7.99996 32V10.6667C7.99996 9.95942 8.28091 9.28114 8.78101 8.78105C9.2811 8.28095 9.95938 8 10.6666 8H53.3333C54.0405 8 54.7188 8.28095 55.2189 8.78105C55.719 9.28114 56 9.95942 56 10.6667V32ZM32 13.3333C30.4177 13.3333 28.871 13.8025 27.5554 14.6816C26.2398 15.5606 25.2144 16.8101 24.6089 18.2719C24.0034 19.7337 23.845 21.3422 24.1537 22.8941C24.4624 24.4459 25.2243 25.8714 26.3431 26.9902C27.4619 28.109 28.8874 28.8709 30.4392 29.1796C31.9911 29.4883 33.5996 29.3299 35.0614 28.7244C36.5232 28.1189 37.7727 27.0935 38.6517 25.7779C39.5308 24.4623 40 22.9156 40 21.3333C40 19.2116 39.1571 17.1768 37.6568 15.6765C36.1565 14.1762 34.1217 13.3333 32 13.3333ZM32 24C31.4725 24 30.957 23.8436 30.5184 23.5506C30.0799 23.2576 29.7381 22.8411 29.5363 22.3538C29.3344 21.8666 29.2816 21.3304 29.3845 20.8131C29.4874 20.2958 29.7414 19.8207 30.1143 19.4477C30.4873 19.0748 30.9624 18.8208 31.4797 18.7179C31.997 18.615 32.5332 18.6678 33.0204 18.8696C33.5077 19.0715 33.9242 19.4133 34.2172 19.8518C34.5102 20.2903 34.6666 20.8059 34.6666 21.3333C34.6666 22.0406 34.3857 22.7189 33.8856 23.2189C33.3855 23.719 32.7072 24 32 24ZM48 18.6667C47.4725 18.6667 46.957 18.8231 46.5184 19.1161C46.0799 19.4091 45.7381 19.8256 45.5363 20.3128C45.3344 20.8001 45.2816 21.3363 45.3845 21.8536C45.4874 22.3709 45.7414 22.846 46.1143 23.2189C46.4873 23.5919 46.9624 23.8459 47.4797 23.9488C47.997 24.0517 48.5332 23.9988 49.0204 23.797C49.5077 23.5952 49.9242 23.2534 50.2172 22.8149C50.5102 22.3763 50.6666 21.8607 50.6666 21.3333C50.6666 20.6261 50.3857 19.9478 49.8856 19.4477C49.3855 18.9476 48.7072 18.6667 48 18.6667Z" fill="#10ABED" fill-opacity="0.91"/>
</svg>
